<?xml version="1.0" encoding="UTF-8"?>
<svg width="512px" height="512px" viewBox="0 0 512 512" version="1.1" xmlns="http://www.w3.org/2000/svg" xmlns:xlink="http://www.w3.org/1999/xlink">
    <!-- Generator: Sketch 52.1 (67048) - http://www.bohemiancoding.com/sketch -->
    <title>icon copy</title>
    <desc>Created with Sketch.</desc>
    <defs>
        <path d="M146.141456,0 L365.858544,0 C416.675112,-3.43056238e-15 435.102427,5.29105984 453.680205,15.2265641 C472.257983,25.1620684 486.837932,39.7420171 496.773436,58.3197949 C506.70894,76.8975727 512,95.3248882 512,146.141456 L512,365.858544 C512,416.675112 506.70894,435.102427 496.773436,453.680205 C486.837932,472.257983 472.257983,486.837932 453.680205,496.773436 C435.102427,506.70894 416.675112,512 365.858544,512 L146.141456,512 C95.3248882,512 76.8975727,506.70894 58.3197949,496.773436 C39.7420171,486.837932 25.1620684,472.257983 15.2265641,453.680205 C5.29105984,435.102427 2.28704159e-15,416.675112 -3.93619317e-15,365.858544 L0,146.141456 C-2.28704159e-15,95.3248882 5.29105984,76.8975727 15.2265641,58.3197949 C25.1620684,39.7420171 39.7420171,25.1620684 58.3197949,15.2265641 C76.8975727,5.29105984 95.3248882,3.43056238e-15 146.141456,-5.90428975e-15 Z" id="path-1"></path>
    </defs>
    <g id="icon-copy" stroke="none" stroke-width="1" fill="none" fill-rule="evenodd">
        <g id="Smooth-Corners"></g>
        <mask id="mask-2" fill="white">
            <use xlink:href="#path-1"></use>
        </mask>
        <use id="Smooth-Corners" fill="#000000" xlink:href="#path-1"></use>
        <g id="RED" mask="url(#mask-2)">
            <polygon id="Rectangle-Copy-10" fill="#FFFFFF" points="0 0 512 0 512 512 0 512"></polygon>
            <g id="coloring_red-copy-2">
                <polygon id="Rectangle-Copy-3" fill="#D41313" points="512 63.7 512 512 256 512 256 200.1"></polygon>
                <polygon id="Rectangle-Copy-2" fill="#950D0D" points="256 200.1 256 512 -3.41060513e-13 512 -3.41060513e-13 63.7"></polygon>
                <polygon id="Rectangle" fill="#F84F4F" points="0 0 512 0 512 63.7017695 256 200.1 0 63.7017695"></polygon>
            </g>
            <g id="sign_pikk-copy-7" transform="translate(136.000000, 88.000000)">
                <g id="logo_pikk-copy-7">
                    <path d="M120,143.650268 L120,366 C64.8275862,284.360902 31.0344828,221.755639 18.6206897,178.184211 C6.20689655,134.612782 -2.10737058e-13,91.2706767 -2.27373675e-13,48.1578947 L79.4681378,90.5284535 C78.466466,93.6949735 77.9310345,97.223778 77.9310345,101.131579 C77.9310345,124.308852 96.7659519,143.650268 120,143.650268 Z" id="Combined-Shape" fill="#D7D7D7"></path>
                    <path d="M79.4702187,90.521878 L1.42108547e-14,48.1578947 C13.3333333,36.2330827 26.8965517,26.3721805 40.6896552,18.575188 C61.3793103,6.87969925 85.611097,-1.64181169e-13 120,-1.70530257e-13 C154.388903,-1.7148262e-13 178.62069,6.87969925 199.310345,18.575188 C213.049798,26.3418528 226.613016,36.20185 240,48.1551796 L240,48.2726593 L160.544409,90.5682122 C155.620205,74.9258098 139.333062,68.1090226 120,68.1090226 C100.686037,68.1090226 84.4119785,74.9123477 79.4702187,90.521878 Z" id="Combined-Shape" fill="#FFFFFF"></path>
                    <path d="M120,143.650268 C143.234048,143.650268 162.068966,124.308852 162.068966,101.131579 C162.068966,97.223778 161.533534,93.6949735 160.531862,90.5284535 L240,48.1578947 C240,91.2706767 233.793103,134.612782 221.37931,178.184211 C208.965517,221.755639 175.172414,284.360902 120,366 L120,143.650268 Z" id="Combined-Shape" fill="#EBEBEB"></path>
                </g>
            </g>
        </g>
    </g>
</svg>